<svg xmlns="http://www.w3.org/2000/svg" width="400" height="340"><style>text{font-family:Liberation Sans,sans-serif}text.title{font-size:25px;text-anchor:middle}text.desc,text.head{font-size:16px;text-anchor:middle;text-align:center}text.head{fill:#fff;font-size:13px}</style><path fill="#217867" d="M0 270h400v70H0z"/><path fill="#2ca089" d="M0 200h400v70H0z"/><path fill="#5fd3bc" d="M0 130h400v70H0z"/><path fill="#afe9dd" d="M50 0h350v70H50z"/><path opacity=".5" d="M0 130h50v210H0z"/><text class="title" y="25" x="225"><tspan>Cloud Clients</tspan></text><text class="title" y="155" x="225"><tspan>SaaS</tspan></text><text class="title" y="225" x="225"><tspan>PaaS</tspan></text><text class="title" y="295" x="225"><tspan>IaaS</tspan></text><text class="desc" y="45" x="225"><tspan>Web browser, mobile app, thin client, terminal</tspan><tspan x="225" dy="20">emulator, ...</tspan></text><text class="desc" y="175" x="225"><tspan>CRM, Email, virtual desktop, communication,</tspan><tspan x="225" dy="20">games, ...</tspan></text><text class="desc" y="245" x="225"><tspan>Execution runtime, database, web server,</tspan><tspan x="225" dy="20">development tools, ...</tspan></text><text class="desc" y="315" x="225"><tspan>Virtual machines, servers, storage, load</tspan><tspan x="225" dy="20">balancers, network, ...</tspan></text><text class="head" y="28" x="34" transform="rotate(-90 100 100)"><tspan>Application</tspan></text><text class="head" y="28" x="-36" transform="rotate(-90 100 100)"><tspan>Platform</tspan></text><text class="head" y="20" x="-105" transform="rotate(-90 100 100)"><tspan>Infra-</tspan><tspan x="-105" dy="15">structure</tspan></text><path fill="#333" d="M225 75l20 15h-8v20h8l-20 15-20-15h8V90h-8z"/></svg>